# Blender 4.2.1 LTS
# www.blender.org
o Bridge_Glass
v -1.000000 0.500000 2.250000
v -1.750000 -0.500000 2.250000
v -1.750000 -0.500000 -1.250000
v 0.000000 0.500000 2.250000
v -1.750000 0.500000 2.250000
v -1.750000 0.500000 -1.250000
v 0.000000 0.250000 2.250000
v 0.000000 -0.250000 2.250000
v 0.000000 -0.500000 2.250000
v -1.750000 -0.250000 2.250000
v -1.750000 -0.250000 -1.500000
v 0.000000 0.250000 2.250000
v -1.750000 0.250000 2.250000
v -1.750000 0.250000 -1.500000
v 1.000000 0.500000 2.250000
v 1.750000 -0.500000 2.250000
v 1.750000 -0.500000 -1.250000
v 1.750000 0.500000 2.250000
v 1.750000 0.500000 -1.250000
v 1.750000 -0.250000 2.250000
v 1.750000 -0.250000 -1.500000
v 1.750000 0.250000 2.250000
v 1.750000 0.250000 -1.500000
vn -0.0000 -0.0000 -1.0000
vn 1.0000 -0.0000 -0.0000
vn -1.0000 -0.0000 -0.0000
vt 0.183169 0.816831
vt 0.137908 0.997877
vt 0.137908 0.681046
vt 0.183169 0.047384
vt 0.183169 0.681046
vt 0.047385 0.002123
vt 0.047385 0.681046
vt 0.002123 0.047385
vt 0.002123 0.681046
vt 0.047385 0.997877
vt 0.137908 0.997877
vt 0.183169 0.997877
vt 0.137908 0.002123
vt 0.002123 0.997877
s 0
f 1/1/1 12/2/1 13/3/1
f 13/3/2 6/4/2 5/5/2
f 11/6/2 13/3/2 10/7/2
f 3/8/2 10/7/2 2/9/2
f 8/10/1 2/9/1 10/7/1
f 7/11/1 10/7/1 13/3/1
f 22/3/1 4/12/1 15/1/1
f 22/3/3 19/4/3 23/13/3
f 22/3/3 21/6/3 20/7/3
f 20/7/3 17/8/3 16/9/3
f 16/9/1 8/10/1 20/7/1
f 20/7/1 7/11/1 22/3/1
f 13/3/1 5/5/1 1/1/1
f 1/1/1 4/12/1 12/2/1
f 13/3/2 14/13/2 6/4/2
f 11/6/2 14/13/2 13/3/2
f 3/8/2 11/6/2 10/7/2
f 8/10/1 9/14/1 2/9/1
f 7/11/1 8/10/1 10/7/1
f 15/1/1 18/5/1 22/3/1
f 22/3/1 12/2/1 4/12/1
f 22/3/3 18/5/3 19/4/3
f 22/3/3 23/13/3 21/6/3
f 20/7/3 21/6/3 17/8/3
f 16/9/1 9/14/1 8/10/1
f 20/7/1 8/10/1 7/11/1
