# Blender 4.2.1 LTS
# www.blender.org
o Hull
v -2.500000 -1.750000 -7.500000
v -1.750000 2.500000 -7.500000
v -2.500000 -1.750000 2.500000
v -1.750000 -2.500000 2.500000
v -1.750000 2.500000 2.500000
v -2.500000 1.750000 2.500000
v -2.500000 -1.750000 -2.500000
v -1.750000 -2.500000 -2.500000
v -2.500000 1.750000 -2.500000
v -1.750000 2.500000 -2.500000
v 0.000000 2.500000 -7.500000
v 0.000000 2.500000 -2.500000
v 0.000000 2.500000 2.500000
v 0.000000 -2.500000 -7.500000
v 0.000000 -2.500000 -2.500000
v 0.000000 -2.500000 2.500000
v 0.000000 -1.000000 2.500000
v 0.000000 1.000000 2.500000
v -0.750000 -1.000000 2.500000
v -1.000000 -0.750000 2.500000
v -1.000000 0.750000 2.500000
v -0.750000 1.000000 2.500000
v -1.750000 -2.500000 -7.500000
v -2.500000 1.750000 -7.500000
v 0.000000 -1.000000 -7.500000
v 0.000000 1.000000 -7.500000
v -0.750000 -1.000000 -7.500000
v -1.000000 -0.750000 -7.500000
v -1.000000 0.750000 -7.500000
v -0.750000 1.000000 -7.500000
v 0.000000 -1.000000 2.000000
v 0.000000 1.000000 2.000000
v -0.750000 -1.000000 2.000000
v -0.750000 1.000000 2.000000
v 0.000000 -1.000000 -7.000000
v 0.000000 1.000000 -7.000000
v -0.750000 -1.000000 -7.000000
v 0.000000 -1.100000 2.000000
v -0.750000 -1.100000 2.000000
v 0.000000 -1.100000 -2.500000
v -0.750000 -1.100000 -2.500000
v 0.000000 -1.100000 -7.000000
v -0.750000 -1.100000 -7.000000
v -1.000000 -1.000000 2.000000
v -1.000000 -1.000000 -7.000000
v -1.000000 -1.100000 2.000000
v -1.000000 -1.100000 -2.500000
v -1.000000 -1.100000 -7.000000
v -2.000000 -1.000000 2.000000
v -2.000000 -1.000000 -7.000000
v -2.000000 -1.100000 2.000000
v -2.000000 -1.100000 -2.500000
v -1.000000 -0.750000 -7.000000
v -2.000000 -0.750000 -7.000000
v -1.000000 -0.750000 2.000000
v -2.000000 -0.750000 2.000000
v -1.000000 0.750000 2.000000
v -2.000000 0.750000 2.000000
v -1.000000 1.000000 2.000000
v -2.000000 1.000000 2.000000
v 0.000000 2.000000 2.000000
v -0.750000 2.000000 2.000000
v -1.000000 2.000000 2.000000
v -2.000000 -1.000000 -2.500000
v -2.000000 -0.750000 -2.500000
v -2.000000 0.750000 -2.500000
v -2.000000 1.000000 -2.500000
v 0.000000 2.000000 -2.500000
v -0.750000 2.000000 -2.500000
v -1.000000 2.000000 -2.500000
v -2.000000 -1.100000 -7.000000
v -2.000000 0.750000 -7.000000
v -2.000000 1.000000 -7.000000
v 0.000000 2.000000 -7.000000
v -0.750000 2.000000 -7.000000
v -0.750000 1.000000 -7.000000
v -1.000000 1.000000 -7.000000
v -1.000000 0.750000 -7.000000
v -1.000000 2.000000 -7.000000
v 2.500000 -1.750000 -7.500000
v 1.750000 2.500000 -7.500000
v 2.500000 -1.750000 2.500000
v 1.750000 -2.500000 2.500000
v 1.750000 2.500000 2.500000
v 2.500000 1.750000 2.500000
v 2.500000 -1.750000 -2.500000
v 1.750000 -2.500000 -2.500000
v 2.500000 1.750000 -2.500000
v 1.750000 2.500000 -2.500000
v 0.750000 -1.000000 2.500000
v 1.000000 -0.750000 2.500000
v 1.000000 0.750000 2.500000
v 0.750000 1.000000 2.500000
v 1.750000 -2.500000 -7.500000
v 2.500000 1.750000 -7.500000
v 0.750000 -1.000000 -7.500000
v 1.000000 -0.750000 -7.500000
v 1.000000 0.750000 -7.500000
v 0.750000 1.000000 -7.500000
v 0.750000 -1.000000 2.000000
v 0.750000 1.000000 2.000000
v 0.750000 -1.000000 -7.000000
v 0.750000 -1.100000 2.000000
v 0.750000 -1.100000 -2.500000
v 0.750000 -1.100000 -7.000000
v 1.000000 -1.000000 2.000000
v 1.000000 -1.000000 -7.000000
v 1.000000 -1.100000 2.000000
v 1.000000 -1.100000 -2.500000
v 1.000000 -1.100000 -7.000000
v 2.000000 -1.000000 2.000000
v 2.000000 -1.000000 -7.000000
v 2.000000 -1.100000 2.000000
v 2.000000 -1.100000 -2.500000
v 1.000000 -0.750000 -7.000000
v 2.000000 -0.750000 -7.000000
v 1.000000 -0.750000 2.000000
v 2.000000 -0.750000 2.000000
v 1.000000 0.750000 2.000000
v 2.000000 0.750000 2.000000
v 1.000000 1.000000 2.000000
v 2.000000 1.000000 2.000000
v 0.750000 2.000000 2.000000
v 1.000000 2.000000 2.000000
v 2.000000 -1.000000 -2.500000
v 2.000000 -0.750000 -2.500000
v 2.000000 0.750000 -2.500000
v 2.000000 1.000000 -2.500000
v 0.750000 2.000000 -2.500000
v 1.000000 2.000000 -2.500000
v 2.000000 -1.100000 -7.000000
v 2.000000 0.750000 -7.000000
v 2.000000 1.000000 -7.000000
v 0.750000 2.000000 -7.000000
v 0.750000 1.000000 -7.000000
v 1.000000 1.000000 -7.000000
v 1.000000 0.750000 -7.000000
v 1.000000 2.000000 -7.000000
vn -0.0000 -1.0000 -0.0000
vn -1.0000 -0.0000 -0.0000
vn -0.7071 -0.7071 -0.0000
vn -0.7071 0.7071 -0.0000
vn -0.0000 1.0000 -0.0000
vn -0.0000 -0.0000 1.0000
vn 0.7071 -0.7071 -0.0000
vn 0.7071 0.7071 -0.0000
vn 1.0000 -0.0000 -0.0000
vn -0.0000 -0.0000 -1.0000
vt 0.534433 0.812500
vt 0.425058 0.500000
vt 0.425058 0.812500
vt 0.812500 0.605324
vt 0.500000 0.386574
vt 0.812500 0.386574
vt 0.534433 0.500000
vt 0.425058 0.187500
vt 0.500000 0.605324
vt 0.187500 0.386574
vt 0.581308 0.500000
vt 0.534433 0.187500
vt 0.581308 0.187500
vt 0.581308 0.812500
vt 0.534433 0.339699
vt 0.487558 0.449074
vt 0.581308 0.386574
vt 0.581308 0.605324
vt 0.471933 0.558449
vt 0.534433 0.652199
vt 0.425058 0.652199
vt 0.425058 0.558449
vt 0.425058 0.339699
vt 0.471933 0.433449
vt 0.487558 0.542824
vt 0.487558 0.812500
vt 0.471933 0.781250
vt 0.471933 0.812500
vt 0.425058 0.781250
vt 0.487558 0.781250
vt 0.812500 0.449074
vt 0.781250 0.542824
vt 0.812500 0.542824
vt 0.471933 0.187500
vt 0.425058 0.218750
vt 0.471933 0.218750
vt 0.487558 0.218750
vt 0.487558 0.187500
vt 0.187500 0.449074
vt 0.218750 0.542824
vt 0.187500 0.542824
vt 0.425058 0.433449
vt 0.471933 0.427199
vt 0.471933 0.500000
vt 0.487558 0.500000
vt 0.487558 0.433449
vt 0.550058 0.500000
vt 0.550058 0.781250
vt 0.487558 0.427199
vt 0.550058 0.433449
vt 0.550058 0.449074
vt 0.550058 0.542824
vt 0.487558 0.558449
vt 0.471933 0.620949
vt 0.425058 0.620949
vt 0.781250 0.427199
vt 0.500000 0.433449
vt 0.781250 0.433449
vt 0.500000 0.558449
vt 0.781250 0.558449
vt 0.500000 0.449074
vt 0.781250 0.449074
vt 0.500000 0.542824
vt 0.550058 0.558449
vt 0.487558 0.620949
vt 0.500000 0.427199
vt 0.218750 0.433449
vt 0.218750 0.558449
vt 0.218750 0.449074
vt 0.550058 0.218750
vt 0.187500 0.605324
vt 0.425058 0.427199
vt 0.550058 0.427199
vt 0.218750 0.427199
s 0
f 4/1/1 15/2/1 16/3/1
f 6/4/2 7/5/2 3/6/2
f 8/7/1 14/8/1 15/2/1
f 9/9/2 1/10/2 7/5/2
f 4/1/3 7/11/3 8/7/3
f 2/12/4 9/11/4 10/7/4
f 8/7/3 1/13/3 23/12/3
f 10/7/4 6/14/4 5/1/4
f 12/2/5 2/12/5 10/7/5
f 13/3/5 10/7/5 5/1/5
f 4/15/6 20/16/6 3/17/6
f 6/18/6 22/19/6 5/20/6
f 13/21/6 22/19/6 18/22/6
f 16/23/6 19/24/6 4/15/6
f 3/17/6 21/25/6 6/18/6
f 23/15/6 28/16/6 1/17/6
f 24/18/6 30/19/6 2/20/6
f 11/21/6 30/19/6 26/22/6
f 14/23/6 27/24/6 23/15/6
f 1/17/6 29/25/6 24/18/6
f 21/26/7 34/27/7 22/28/7
f 22/28/1 32/29/1 18/3/1
f 17/3/5 33/27/5 19/28/5
f 19/28/8 55/30/8 20/26/8
f 20/31/9 57/32/9 21/33/9
f 30/34/5 36/35/5 26/8/5
f 25/8/1 37/36/1 27/34/1
f 27/34/3 53/37/3 28/38/3
f 28/39/2 78/40/2 29/41/2
f 29/38/4 76/36/4 30/34/4
f 31/42/10 39/43/10 33/24/10
f 38/29/5 41/44/5 39/27/5
f 35/42/10 43/43/10 37/24/10
f 42/35/5 41/44/5 40/2/5
f 43/36/5 47/45/5 41/44/5
f 43/43/10 45/46/10 37/24/10
f 39/43/10 44/46/10 33/24/10
f 41/44/5 46/30/5 39/27/5
f 48/37/5 52/47/5 47/45/5
f 47/45/5 51/48/5 46/30/5
f 48/49/10 50/50/10 45/46/10
f 46/49/10 49/50/10 44/46/10
f 33/24/10 44/46/10 55/16/10
f 37/24/10 45/46/10 53/16/10
f 50/50/10 53/16/10 45/46/10
f 49/50/10 55/16/10 44/46/10
f 56/51/10 57/25/10 55/16/10
f 58/52/10 59/53/10 57/25/10
f 59/53/10 34/19/10 57/25/10
f 59/53/10 62/54/10 34/19/10
f 34/19/10 61/55/10 32/22/10
f 51/56/9 64/57/9 49/58/9
f 58/32/9 67/59/9 60/60/9
f 63/30/1 69/44/1 62/27/1
f 62/27/1 68/2/1 61/29/1
f 49/58/9 65/61/9 56/62/9
f 56/62/9 66/63/9 58/32/9
f 59/53/10 60/64/10 63/65/10
f 70/45/1 75/36/1 69/44/1
f 69/44/1 74/35/1 68/2/1
f 65/61/9 72/40/9 66/63/9
f 52/66/9 50/67/9 64/57/9
f 79/65/6 73/64/6 77/53/6
f 66/63/9 73/68/9 67/59/9
f 64/57/9 54/69/9 65/61/9
f 72/52/10 53/16/10 54/51/10
f 76/19/10 74/55/10 36/22/10
f 79/65/6 76/19/6 75/54/6
f 72/52/6 77/53/6 73/64/6
f 78/25/6 76/19/6 77/53/6
f 63/30/7 67/47/7 70/45/7
f 70/45/7 73/70/7 79/37/7
f 15/2/1 83/1/1 16/3/1
f 86/5/9 85/4/9 82/6/9
f 14/8/1 87/7/1 15/2/1
f 80/10/9 88/9/9 86/5/9
f 86/11/7 83/1/7 87/7/7
f 88/11/8 81/12/8 89/7/8
f 80/13/7 87/7/7 94/12/7
f 85/14/8 89/7/8 84/1/8
f 81/12/5 12/2/5 89/7/5
f 89/7/5 13/3/5 84/1/5
f 91/16/6 83/15/6 82/17/6
f 93/19/6 85/18/6 84/20/6
f 93/19/6 13/21/6 18/22/6
f 16/23/6 90/24/6 17/42/6
f 92/25/6 82/17/6 85/18/6
f 97/16/6 94/15/6 80/17/6
f 99/19/6 95/18/6 81/20/6
f 99/19/6 11/21/6 26/22/6
f 14/23/6 96/24/6 25/42/6
f 98/25/6 80/17/6 95/18/6
f 101/27/3 92/26/3 93/28/3
f 32/29/1 93/28/1 18/3/1
f 100/27/5 17/3/5 90/28/5
f 117/30/4 90/28/4 91/26/4
f 119/32/2 91/31/2 92/33/2
f 36/35/5 99/34/5 26/8/5
f 102/36/1 25/8/1 96/34/1
f 115/37/7 96/34/7 97/38/7
f 137/40/9 97/39/9 98/41/9
f 135/36/8 98/38/8 99/34/8
f 103/43/10 31/42/10 100/24/10
f 104/44/5 38/29/5 103/27/5
f 105/43/10 35/42/10 102/24/10
f 104/44/5 42/35/5 40/2/5
f 109/45/5 105/36/5 104/44/5
f 107/46/10 105/43/10 102/24/10
f 106/46/10 103/43/10 100/24/10
f 108/30/5 104/44/5 103/27/5
f 114/47/5 110/37/5 109/45/5
f 113/48/5 109/45/5 108/30/5
f 112/50/10 110/49/10 107/46/10
f 111/50/10 108/49/10 106/46/10
f 100/24/10 117/16/10 106/46/10
f 102/24/10 115/16/10 107/46/10
f 115/16/10 112/50/10 107/46/10
f 117/16/10 111/50/10 106/46/10
f 119/25/10 118/51/10 117/16/10
f 121/53/10 120/52/10 119/25/10
f 121/53/10 119/25/10 101/19/10
f 123/54/10 121/53/10 101/19/10
f 61/55/10 101/19/10 32/22/10
f 125/57/2 113/56/2 111/58/2
f 128/59/2 120/32/2 122/60/2
f 129/44/1 124/30/1 123/27/1
f 68/2/1 123/27/1 61/29/1
f 126/61/2 111/58/2 118/62/2
f 127/63/2 118/62/2 120/32/2
f 121/53/10 124/65/10 122/64/10
f 134/36/1 130/45/1 129/44/1
f 74/35/1 129/44/1 68/2/1
f 132/40/2 126/61/2 127/63/2
f 112/67/2 114/66/2 125/57/2
f 138/65/6 136/53/6 133/64/6
f 133/68/2 127/63/2 128/59/2
f 116/69/2 125/57/2 126/61/2
f 115/16/10 132/52/10 116/51/10
f 74/55/10 135/19/10 36/22/10
f 135/19/6 138/65/6 134/54/6
f 136/53/6 132/52/6 133/64/6
f 137/25/6 136/53/6 135/19/6
f 128/47/3 124/30/3 130/45/3
f 133/70/3 130/45/3 138/37/3
f 4/1/1 8/7/1 15/2/1
f 6/4/2 9/9/2 7/5/2
f 8/7/1 23/12/1 14/8/1
f 9/9/2 24/71/2 1/10/2
f 4/1/3 3/14/3 7/11/3
f 2/12/4 24/13/4 9/11/4
f 8/7/3 7/11/3 1/13/3
f 10/7/4 9/11/4 6/14/4
f 12/2/5 11/8/5 2/12/5
f 13/3/5 12/2/5 10/7/5
f 4/15/6 19/24/6 20/16/6
f 6/18/6 21/25/6 22/19/6
f 13/21/6 5/20/6 22/19/6
f 16/23/6 17/42/6 19/24/6
f 3/17/6 20/16/6 21/25/6
f 23/15/6 27/24/6 28/16/6
f 24/18/6 29/25/6 30/19/6
f 11/21/6 2/20/6 30/19/6
f 14/23/6 25/42/6 27/24/6
f 1/17/6 28/16/6 29/25/6
f 21/26/7 57/30/7 34/27/7
f 22/28/1 34/27/1 32/29/1
f 17/3/5 31/29/5 33/27/5
f 19/28/8 33/27/8 55/30/8
f 20/31/9 55/62/9 57/32/9
f 30/34/5 76/36/5 36/35/5
f 25/8/1 35/35/1 37/36/1
f 27/34/3 37/36/3 53/37/3
f 28/39/2 53/69/2 78/40/2
f 29/38/4 78/37/4 76/36/4
f 31/42/10 38/72/10 39/43/10
f 38/29/5 40/2/5 41/44/5
f 35/42/10 42/72/10 43/43/10
f 42/35/5 43/36/5 41/44/5
f 43/36/5 48/37/5 47/45/5
f 43/43/10 48/49/10 45/46/10
f 39/43/10 46/49/10 44/46/10
f 41/44/5 47/45/5 46/30/5
f 48/37/5 71/70/5 52/47/5
f 47/45/5 52/47/5 51/48/5
f 48/49/10 71/73/10 50/50/10
f 46/49/10 51/73/10 49/50/10
f 50/50/10 54/51/10 53/16/10
f 49/50/10 56/51/10 55/16/10
f 56/51/10 58/52/10 57/25/10
f 58/52/10 60/64/10 59/53/10
f 59/53/10 63/65/10 62/54/10
f 34/19/10 62/54/10 61/55/10
f 51/56/9 52/66/9 64/57/9
f 58/32/9 66/63/9 67/59/9
f 63/30/1 70/45/1 69/44/1
f 62/27/1 69/44/1 68/2/1
f 49/58/9 64/57/9 65/61/9
f 56/62/9 65/61/9 66/63/9
f 70/45/1 79/37/1 75/36/1
f 69/44/1 75/36/1 74/35/1
f 65/61/9 54/69/9 72/40/9
f 52/66/9 71/74/9 50/67/9
f 66/63/9 72/40/9 73/68/9
f 64/57/9 50/67/9 54/69/9
f 72/52/10 78/25/10 53/16/10
f 76/19/10 75/54/10 74/55/10
f 79/65/6 77/53/6 76/19/6
f 72/52/6 78/25/6 77/53/6
f 63/30/7 60/48/7 67/47/7
f 70/45/7 67/47/7 73/70/7
f 15/2/1 87/7/1 83/1/1
f 86/5/9 88/9/9 85/4/9
f 14/8/1 94/12/1 87/7/1
f 80/10/9 95/71/9 88/9/9
f 86/11/7 82/14/7 83/1/7
f 88/11/8 95/13/8 81/12/8
f 80/13/7 86/11/7 87/7/7
f 85/14/8 88/11/8 89/7/8
f 81/12/5 11/8/5 12/2/5
f 89/7/5 12/2/5 13/3/5
f 91/16/6 90/24/6 83/15/6
f 93/19/6 92/25/6 85/18/6
f 93/19/6 84/20/6 13/21/6
f 16/23/6 83/15/6 90/24/6
f 92/25/6 91/16/6 82/17/6
f 97/16/6 96/24/6 94/15/6
f 99/19/6 98/25/6 95/18/6
f 99/19/6 81/20/6 11/21/6
f 14/23/6 94/15/6 96/24/6
f 98/25/6 97/16/6 80/17/6
f 101/27/3 119/30/3 92/26/3
f 32/29/1 101/27/1 93/28/1
f 100/27/5 31/29/5 17/3/5
f 117/30/4 100/27/4 90/28/4
f 119/32/2 117/62/2 91/31/2
f 36/35/5 135/36/5 99/34/5
f 102/36/1 35/35/1 25/8/1
f 115/37/7 102/36/7 96/34/7
f 137/40/9 115/69/9 97/39/9
f 135/36/8 137/37/8 98/38/8
f 103/43/10 38/72/10 31/42/10
f 104/44/5 40/2/5 38/29/5
f 105/43/10 42/72/10 35/42/10
f 104/44/5 105/36/5 42/35/5
f 109/45/5 110/37/5 105/36/5
f 107/46/10 110/49/10 105/43/10
f 106/46/10 108/49/10 103/43/10
f 108/30/5 109/45/5 104/44/5
f 114/47/5 131/70/5 110/37/5
f 113/48/5 114/47/5 109/45/5
f 112/50/10 131/73/10 110/49/10
f 111/50/10 113/73/10 108/49/10
f 115/16/10 116/51/10 112/50/10
f 117/16/10 118/51/10 111/50/10
f 119/25/10 120/52/10 118/51/10
f 121/53/10 122/64/10 120/52/10
f 123/54/10 124/65/10 121/53/10
f 61/55/10 123/54/10 101/19/10
f 125/57/2 114/66/2 113/56/2
f 128/59/2 127/63/2 120/32/2
f 129/44/1 130/45/1 124/30/1
f 68/2/1 129/44/1 123/27/1
f 126/61/2 125/57/2 111/58/2
f 127/63/2 126/61/2 118/62/2
f 134/36/1 138/37/1 130/45/1
f 74/35/1 134/36/1 129/44/1
f 132/40/2 116/69/2 126/61/2
f 112/67/2 131/74/2 114/66/2
f 133/68/2 132/40/2 127/63/2
f 116/69/2 112/67/2 125/57/2
f 115/16/10 137/25/10 132/52/10
f 74/55/10 134/54/10 135/19/10
f 135/19/6 136/53/6 138/65/6
f 136/53/6 137/25/6 132/52/6
f 128/47/3 122/48/3 124/30/3
f 133/70/3 128/47/3 130/45/3
