# Blender 4.3.2
# www.blender.org
o inside
v -1.500000 -1.000000 1.000000
v -1.500000 1.000000 1.000000
v -1.000000 -1.000000 1.000000
v -1.000000 1.000000 1.000000
v 0.000000 -1.000000 1.000000
v 0.000000 1.000000 1.000000
v -1.500000 -1.000000 0.000000
v -1.500000 1.000000 0.000000
v -1.000000 -1.100000 0.000000
v -1.000000 -1.100000 1.000000
v -1.500000 -1.100000 1.000000
v 0.000000 -1.100000 1.000000
v 0.000000 -1.100000 0.000000
v -1.500000 -1.100000 0.000000
v 0.000000 1.500000 0.000000
v -1.000000 1.500000 0.000000
v 0.000000 1.500000 1.000000
v -1.000000 1.500000 1.000000
v -0.750000 1.000000 1.000000
v -0.750000 1.500000 0.000000
v -0.750000 1.500000 1.000000
v -0.750000 -1.000000 1.000000
v -0.750000 -1.100000 1.000000
v -0.750000 -1.100000 0.000000
v -1.000000 0.750000 1.000000
v -1.500000 0.750000 0.000000
v -1.500000 0.750000 1.000000
v -1.000000 -0.750000 1.000000
v -1.500000 -0.750000 0.000000
v -1.500000 -0.750000 1.000000
v 1.500000 -1.000000 1.000000
v 1.500000 1.000000 1.000000
v 1.000000 -1.000000 1.000000
v 1.000000 1.000000 1.000000
v 1.500000 -1.000000 0.000000
v 1.500000 1.000000 0.000000
v 1.000000 -1.100000 0.000000
v 1.000000 -1.100000 1.000000
v 1.500000 -1.100000 1.000000
v 1.500000 -1.100000 0.000000
v 1.000000 1.500000 0.000000
v 1.000000 1.500000 1.000000
v 0.750000 1.000000 1.000000
v 0.750000 1.500000 0.000000
v 0.750000 1.500000 1.000000
v 0.750000 -1.000000 1.000000
v 0.750000 -1.100000 1.000000
v 0.750000 -1.100000 0.000000
v 1.000000 0.750000 1.000000
v 1.500000 0.750000 0.000000
v 1.500000 0.750000 1.000000
v 1.000000 -0.750000 1.000000
v 1.500000 -0.750000 0.000000
v 1.500000 -0.750000 1.000000
v -1.500000 -1.000000 -1.000000
v -1.500000 1.000000 -1.000000
v -1.000000 -1.000000 -1.000000
v -1.000000 1.000000 -1.000000
v 0.000000 -1.000000 -1.000000
v 0.000000 1.000000 -1.000000
v -1.000000 -1.100000 -1.000000
v -1.500000 -1.100000 -1.000000
v 0.000000 -1.100000 -1.000000
v 0.000000 1.500000 -1.000000
v -1.000000 1.500000 -1.000000
v -0.750000 1.000000 -1.000000
v -0.750000 1.500000 -1.000000
v -0.750000 -1.000000 -1.000000
v -0.750000 -1.100000 -1.000000
v -1.000000 0.750000 -1.000000
v -1.500000 0.750000 -1.000000
v -1.000000 -0.750000 -1.000000
v -1.500000 -0.750000 -1.000000
v 1.500000 -1.000000 -1.000000
v 1.500000 1.000000 -1.000000
v 1.000000 -1.000000 -1.000000
v 1.000000 1.000000 -1.000000
v 1.000000 -1.100000 -1.000000
v 1.500000 -1.100000 -1.000000
v 1.000000 1.500000 -1.000000
v 0.750000 1.000000 -1.000000
v 0.750000 1.500000 -1.000000
v 0.750000 -1.000000 -1.000000
v 0.750000 -1.100000 -1.000000
v 1.000000 0.750000 -1.000000
v 1.500000 0.750000 -1.000000
v 1.000000 -0.750000 -1.000000
v 1.500000 -0.750000 -1.000000
vn -0.0000 -0.0000 -1.0000
vn 0.7071 -0.7071 -0.0000
vn 1.0000 -0.0000 -0.0000
vn -0.0000 1.0000 -0.0000
vn -0.0000 -1.0000 -0.0000
vn -0.7071 -0.7071 -0.0000
vn -1.0000 -0.0000 -0.0000
vn -0.0000 -0.0000 1.0000
vt 0.818182 1.000000
vt 0.727273 0.818182
vt 0.818182 0.818182
vt 1.000000 0.000000
vt 0.818182 0.363636
vt 1.000000 0.363636
vt 0.818182 0.054545
vt 1.000000 0.090909
vt 0.818182 0.090909
vt 1.000000 0.727273
vt 0.818182 0.727273
vt 0.363636 0.054545
vt 0.000000 0.090909
vt 0.363636 0.090909
vt 0.000000 0.727273
vt 0.363636 0.818182
vt 0.363636 0.727273
vt 1.000000 0.818182
vt 0.818182 0.000000
vt 0.727273 0.000000
vt 0.727273 0.363636
vt 0.727273 0.054545
vt 0.727273 0.090909
vt 0.454545 0.363636
vt 0.727273 1.000000
vt 0.454545 0.818182
vt 0.454545 0.054545
vt 0.454545 0.090909
vt 0.454545 0.000000
vt 0.000000 0.181818
vt 0.363636 0.181818
vt 1.000000 0.181818
vt 0.818182 0.181818
vt 1.000000 0.054545
vt 0.000000 0.054545
vt 0.000000 0.818182
vt 0.454545 1.000000
s 0
f 18/1/1 19/2/1 4/3/1
f 8/4/2 18/5/2 2/6/2
f 10/7/1 1/8/1 3/9/1
f 27/10/1 4/3/1 25/11/1
f 11/12/3 7/13/3 1/14/3
f 26/15/3 2/16/3 27/17/3
f 2/18/1 18/1/1 4/3/1
f 14/4/4 10/5/4 9/19/4
f 24/20/4 10/5/4 23/21/4
f 23/22/1 3/9/1 22/23/1
f 20/20/5 17/24/5 21/21/5
f 21/25/1 6/26/1 19/2/1
f 16/19/5 21/21/5 18/5/5
f 12/27/1 22/23/1 5/28/1
f 13/29/4 23/21/4 12/24/4
f 29/30/3 27/17/3 30/31/3
f 30/32/1 25/11/1 28/33/1
f 1/8/1 28/33/1 3/9/1
f 7/13/3 30/31/3 1/14/3
f 4/3/1 19/2/1 25/11/1
f 3/9/1 28/33/1 22/23/1
f 43/2/1 42/1/1 34/3/1
f 42/5/6 36/4/6 32/6/6
f 31/8/1 38/7/1 33/9/1
f 34/3/1 51/10/1 49/11/1
f 35/13/7 39/12/7 31/14/7
f 32/16/7 50/15/7 51/17/7
f 32/18/1 34/3/1 42/1/1
f 38/5/4 40/4/4 37/19/4
f 38/5/4 48/20/4 47/21/4
f 33/9/1 47/22/1 46/23/1
f 17/24/5 44/20/5 45/21/5
f 6/26/1 45/25/1 43/2/1
f 45/21/5 41/19/5 42/5/5
f 46/23/1 12/27/1 5/28/1
f 47/21/4 13/29/4 12/24/4
f 51/17/7 53/30/7 54/31/7
f 49/11/1 54/32/1 52/33/1
f 52/33/1 31/8/1 33/9/1
f 54/31/7 35/13/7 31/14/7
f 34/3/1 49/11/1 43/2/1
f 33/9/1 46/23/1 52/33/1
f 66/2/8 65/1/8 58/3/8
f 65/5/2 8/4/2 56/6/2
f 55/8/8 61/7/8 57/9/8
f 58/3/8 71/10/8 70/11/8
f 7/13/3 62/12/3 55/14/3
f 56/16/3 26/15/3 71/17/3
f 56/18/8 58/3/8 65/1/8
f 61/5/4 14/4/4 9/19/4
f 61/5/4 24/20/4 69/21/4
f 57/9/8 69/22/8 68/23/8
f 64/24/5 20/20/5 67/21/5
f 60/26/8 67/25/8 66/2/8
f 67/21/5 16/19/5 65/5/5
f 68/23/8 63/27/8 59/28/8
f 69/21/4 13/29/4 63/24/4
f 71/17/3 29/30/3 73/31/3
f 70/11/8 73/32/8 72/33/8
f 72/33/8 55/8/8 57/9/8
f 73/31/3 7/13/3 55/14/3
f 58/3/8 70/11/8 66/2/8
f 57/9/8 68/23/8 72/33/8
f 80/1/8 81/2/8 77/3/8
f 36/4/6 80/5/6 75/6/6
f 78/7/8 74/8/8 76/9/8
f 86/10/8 77/3/8 85/11/8
f 79/12/7 35/13/7 74/14/7
f 50/15/7 75/16/7 86/17/7
f 75/18/8 80/1/8 77/3/8
f 40/4/4 78/5/4 37/19/4
f 48/20/4 78/5/4 84/21/4
f 84/22/8 76/9/8 83/23/8
f 44/20/5 64/24/5 82/21/5
f 82/25/8 60/26/8 81/2/8
f 41/19/5 82/21/5 80/5/5
f 63/27/8 83/23/8 59/28/8
f 13/29/4 84/21/4 63/24/4
f 53/30/7 86/17/7 88/31/7
f 88/32/8 85/11/8 87/33/8
f 74/8/8 87/33/8 76/9/8
f 35/13/7 88/31/7 74/14/7
f 77/3/8 81/2/8 85/11/8
f 76/9/8 87/33/8 83/23/8
f 18/1/1 21/25/1 19/2/1
f 8/4/2 16/19/2 18/5/2
f 10/7/1 11/34/1 1/8/1
f 27/10/1 2/18/1 4/3/1
f 11/12/3 14/35/3 7/13/3
f 26/15/3 8/36/3 2/16/3
f 14/4/4 11/6/4 10/5/4
f 24/20/4 9/19/4 10/5/4
f 23/22/1 10/7/1 3/9/1
f 20/20/5 15/29/5 17/24/5
f 21/25/1 17/37/1 6/26/1
f 16/19/5 20/20/5 21/21/5
f 12/27/1 23/22/1 22/23/1
f 13/29/4 24/20/4 23/21/4
f 29/30/3 26/15/3 27/17/3
f 30/32/1 27/10/1 25/11/1
f 1/8/1 30/32/1 28/33/1
f 7/13/3 29/30/3 30/31/3
f 43/2/1 45/25/1 42/1/1
f 42/5/6 41/19/6 36/4/6
f 31/8/1 39/34/1 38/7/1
f 34/3/1 32/18/1 51/10/1
f 35/13/7 40/35/7 39/12/7
f 32/16/7 36/36/7 50/15/7
f 38/5/4 39/6/4 40/4/4
f 38/5/4 37/19/4 48/20/4
f 33/9/1 38/7/1 47/22/1
f 17/24/5 15/29/5 44/20/5
f 6/26/1 17/37/1 45/25/1
f 45/21/5 44/20/5 41/19/5
f 46/23/1 47/22/1 12/27/1
f 47/21/4 48/20/4 13/29/4
f 51/17/7 50/15/7 53/30/7
f 49/11/1 51/10/1 54/32/1
f 52/33/1 54/32/1 31/8/1
f 54/31/7 53/30/7 35/13/7
f 66/2/8 67/25/8 65/1/8
f 65/5/2 16/19/2 8/4/2
f 55/8/8 62/34/8 61/7/8
f 58/3/8 56/18/8 71/10/8
f 7/13/3 14/35/3 62/12/3
f 56/16/3 8/36/3 26/15/3
f 61/5/4 62/6/4 14/4/4
f 61/5/4 9/19/4 24/20/4
f 57/9/8 61/7/8 69/22/8
f 64/24/5 15/29/5 20/20/5
f 60/26/8 64/37/8 67/25/8
f 67/21/5 20/20/5 16/19/5
f 68/23/8 69/22/8 63/27/8
f 69/21/4 24/20/4 13/29/4
f 71/17/3 26/15/3 29/30/3
f 70/11/8 71/10/8 73/32/8
f 72/33/8 73/32/8 55/8/8
f 73/31/3 29/30/3 7/13/3
f 80/1/8 82/25/8 81/2/8
f 36/4/6 41/19/6 80/5/6
f 78/7/8 79/34/8 74/8/8
f 86/10/8 75/18/8 77/3/8
f 79/12/7 40/35/7 35/13/7
f 50/15/7 36/36/7 75/16/7
f 40/4/4 79/6/4 78/5/4
f 48/20/4 37/19/4 78/5/4
f 84/22/8 78/7/8 76/9/8
f 44/20/5 15/29/5 64/24/5
f 82/25/8 64/37/8 60/26/8
f 41/19/5 44/20/5 82/21/5
f 63/27/8 84/22/8 83/23/8
f 13/29/4 48/20/4 84/21/4
f 53/30/7 50/15/7 86/17/7
f 88/32/8 86/10/8 85/11/8
f 74/8/8 88/32/8 87/33/8
f 35/13/7 53/30/7 88/31/7
