# Blender 4.3.1
# www.blender.org
o AirLock
v -2.500000 1.000000 -1.000000
v -2.500000 -1.000000 -1.000000
v -2.500000 -1.000000 1.000000
v -2.500000 1.000000 1.000000
v -2.500000 -1.500000 1.500000
v -2.500000 1.500000 1.500000
v -2.500000 1.500000 -1.500000
v -2.500000 -1.500000 -1.500000
v 0.000000 1.500000 1.500000
v 0.000000 -1.500000 1.500000
v 0.000000 -1.500000 -1.500000
v 0.000000 1.500000 -1.500000
v 0.000000 -1.000000 1.000000
v 0.000000 1.000000 1.000000
v 0.000000 1.000000 -1.000000
v 0.000000 -1.000000 -1.000000
vn -0.0000 -0.0000 -1.0000
vn -0.0000 -1.0000 -0.0000
vn -0.0000 1.0000 -0.0000
vn -0.0000 -0.0000 1.0000
vn 1.0000 -0.0000 -0.0000
vn -1.0000 -0.0000 -0.0000
vt 0.375000 0.025714
vt 0.623215 0.323572
vt 0.623215 0.025714
vt 0.224286 0.724286
vt 0.025714 0.972502
vt 0.224286 0.972502
vt 0.474286 0.724286
vt 0.275714 0.972502
vt 0.474286 0.972502
vt 0.525714 0.972501
vt 0.724286 0.724286
vt 0.525714 0.724286
vt 0.775714 0.972502
vt 0.974286 0.724286
vt 0.775714 0.724286
vt 0.375000 0.375000
vt 0.623215 0.672858
vt 0.623215 0.375000
vt 0.922858 0.323572
vt 0.674643 0.025714
vt 0.674643 0.323572
vt 0.922858 0.672858
vt 0.674643 0.375000
vt 0.674643 0.672858
vt 0.273929 0.273929
vt 0.025714 0.323572
vt 0.323572 0.323572
vt 0.075357 0.273929
vt 0.025714 0.025714
vt 0.075357 0.075357
vt 0.323572 0.025714
vt 0.273929 0.075357
vt 0.075357 0.623215
vt 0.025714 0.375000
vt 0.025714 0.672858
vt 0.273929 0.424643
vt 0.323572 0.375000
vt 0.323572 0.672858
vt 0.273929 0.623215
vt 0.375000 0.323572
vt 0.025714 0.724286
vt 0.275714 0.724286
vt 0.724286 0.972502
vt 0.974286 0.972502
vt 0.375000 0.672858
vt 0.922858 0.025714
vt 0.922858 0.375000
vt 0.075357 0.424643
s 0
f 12/1/1 8/2/1 7/3/1
f 3/4/1 14/5/1 13/6/1
f 4/7/2 15/8/2 14/9/2
f 2/10/3 13/11/3 16/12/3
f 1/13/4 16/14/4 15/15/4
f 11/16/2 5/17/2 8/18/2
f 9/19/3 7/20/3 6/21/3
f 10/22/4 6/23/4 5/24/4
f 13/25/5 9/26/5 10/27/5
f 14/28/5 12/29/5 9/26/5
f 15/30/5 11/31/5 12/29/5
f 16/32/5 10/27/5 11/31/5
f 1/33/6 6/34/6 7/35/6
f 6/34/6 3/36/6 5/37/6
f 3/36/6 8/38/6 5/37/6
f 2/39/6 7/35/6 8/38/6
f 12/1/1 11/40/1 8/2/1
f 3/4/1 4/41/1 14/5/1
f 4/7/2 1/42/2 15/8/2
f 2/10/3 3/43/3 13/11/3
f 1/13/4 2/44/4 16/14/4
f 11/16/2 10/45/2 5/17/2
f 9/19/3 12/46/3 7/20/3
f 10/22/4 9/47/4 6/23/4
f 13/25/5 14/28/5 9/26/5
f 14/28/5 15/30/5 12/29/5
f 15/30/5 16/32/5 11/31/5
f 16/32/5 13/25/5 10/27/5
f 1/33/6 4/48/6 6/34/6
f 6/34/6 4/48/6 3/36/6
f 3/36/6 2/39/6 8/38/6
f 2/39/6 1/33/6 7/35/6
