# Blender 4.3.2
# www.blender.org
o outside
v -2.500000 0.000000 -0.000000
v -1.500000 2.500000 -2.500000
v -2.500000 1.500000 -0.000000
v 0.000000 2.500000 0.000000
v -1.000000 2.500000 -0.000000
v -1.000000 2.500000 -2.500000
v -2.500000 1.000000 -0.000000
v -2.500000 1.000000 -2.500000
v -1.000000 0.000000 -0.000000
v 0.000000 1.000000 0.000000
v -1.500000 0.000000 -0.000000
v 0.000000 1.500000 0.000000
v -1.000000 1.500000 -0.000000
v -1.500000 2.500000 -0.000000
v -1.500000 1.000000 -0.000000
v -1.500000 1.500000 -0.000000
v 0.000000 1.500000 -2.500000
v -1.500000 0.000000 -2.500000
v 0.000000 1.000000 -2.500000
v -1.000000 0.000000 -2.500000
v -1.000000 0.000000 -0.250000
v 0.000000 1.000000 -0.250000
v -1.000000 0.000000 -2.250000
v 0.000000 1.000000 -2.250000
v -1.000000 0.750000 -0.000000
v -1.500000 1.000000 -2.500000
v -1.000000 1.000000 -0.000000
v -0.750000 1.000000 -2.500000
v -1.000000 0.750000 -2.500000
v 0.000000 2.500000 -2.500000
v -0.750000 1.000000 -0.250000
v -1.000000 0.750000 -0.250000
v -1.000000 0.750000 -2.250000
v -0.750000 1.000000 -2.250000
v -0.750000 2.500000 -0.000000
v -0.750000 2.500000 -2.500000
v -0.750000 1.500000 -0.000000
v -2.500000 1.500000 -2.500000
v -2.500000 0.750000 -0.000000
v -2.500000 0.750000 -2.500000
v -2.500000 0.000000 -2.500000
v -1.500000 0.750000 -0.000000
v -1.000000 1.500000 -2.500000
v -0.750000 1.000000 -0.000000
v -1.500000 1.500000 -2.500000
v -1.000000 1.000000 -2.500000
v -0.750000 1.500000 -2.500000
v -1.500000 0.750000 -2.500000
v 2.500000 0.000000 -0.000000
v 1.500000 2.500000 -2.500000
v 2.500000 1.500000 -0.000000
v 1.000000 2.500000 -0.000000
v 1.000000 2.500000 -2.500000
v 2.500000 1.000000 -0.000000
v 2.500000 1.000000 -2.500000
v 1.000000 0.000000 -0.000000
v 1.500000 0.000000 -0.000000
v 1.000000 1.500000 -0.000000
v 1.500000 2.500000 -0.000000
v 1.500000 1.000000 -0.000000
v 1.500000 1.500000 -0.000000
v 1.500000 0.000000 -2.500000
v 1.000000 0.000000 -2.500000
v 1.000000 0.000000 -0.250000
v 1.000000 0.000000 -2.250000
v 1.000000 0.750000 -0.000000
v 1.500000 1.000000 -2.500000
v 1.000000 1.000000 -0.000000
v 0.750000 1.000000 -2.500000
v 1.000000 0.750000 -2.500000
v 0.750000 1.000000 -0.250000
v 1.000000 0.750000 -0.250000
v 1.000000 0.750000 -2.250000
v 0.750000 1.000000 -2.250000
v 0.750000 2.500000 -0.000000
v 0.750000 2.500000 -2.500000
v 0.750000 1.500000 -0.000000
v 2.500000 1.500000 -2.500000
v 2.500000 0.750000 -0.000000
v 2.500000 0.750000 -2.500000
v 2.500000 0.000000 -2.500000
v 1.500000 0.750000 -0.000000
v 1.000000 1.500000 -2.500000
v 0.750000 1.000000 -0.000000
v 1.500000 1.500000 -2.500000
v 1.000000 1.000000 -2.500000
v 0.750000 1.500000 -2.500000
v 1.500000 0.750000 -2.500000
v -1.500000 -2.500000 -2.500000
v -2.500000 -1.500000 -0.000000
v 0.000000 -2.500000 0.000000
v -1.000000 -2.500000 -0.000000
v -1.000000 -2.500000 -2.500000
v -2.500000 -1.000000 -0.000000
v -2.500000 -1.000000 -2.500000
v 0.000000 -1.000000 0.000000
v 0.000000 -1.500000 0.000000
v -1.000000 -1.500000 -0.000000
v -1.500000 -2.500000 -0.000000
v -1.500000 -1.000000 -0.000000
v -1.500000 -1.500000 -0.000000
v 0.000000 -1.500000 -2.500000
v 0.000000 -1.000000 -2.500000
v 0.000000 -1.000000 -0.250000
v 0.000000 -1.000000 -2.250000
v -1.000000 -0.750000 -0.000000
v -1.500000 -1.000000 -2.500000
v -1.000000 -1.000000 -0.000000
v -0.750000 -1.000000 -2.500000
v -1.000000 -0.750000 -2.500000
v 0.000000 -2.500000 -2.500000
v -0.750000 -1.000000 -0.250000
v -1.000000 -0.750000 -0.250000
v -1.000000 -0.750000 -2.250000
v -0.750000 -1.000000 -2.250000
v -0.750000 -2.500000 -0.000000
v -0.750000 -2.500000 -2.500000
v -0.750000 -1.500000 -0.000000
v -2.500000 -1.500000 -2.500000
v -2.500000 -0.750000 -0.000000
v -2.500000 -0.750000 -2.500000
v -1.500000 -0.750000 -0.000000
v -1.000000 -1.500000 -2.500000
v -0.750000 -1.000000 -0.000000
v -1.500000 -1.500000 -2.500000
v -1.000000 -1.000000 -2.500000
v -0.750000 -1.500000 -2.500000
v -1.500000 -0.750000 -2.500000
v 1.500000 -2.500000 -2.500000
v 2.500000 -1.500000 -0.000000
v 1.000000 -2.500000 -0.000000
v 1.000000 -2.500000 -2.500000
v 2.500000 -1.000000 -0.000000
v 2.500000 -1.000000 -2.500000
v 1.000000 -1.500000 -0.000000
v 1.500000 -2.500000 -0.000000
v 1.500000 -1.000000 -0.000000
v 1.500000 -1.500000 -0.000000
v 1.000000 -0.750000 -0.000000
v 1.500000 -1.000000 -2.500000
v 1.000000 -1.000000 -0.000000
v 0.750000 -1.000000 -2.500000
v 1.000000 -0.750000 -2.500000
v 0.750000 -1.000000 -0.250000
v 1.000000 -0.750000 -0.250000
v 1.000000 -0.750000 -2.250000
v 0.750000 -1.000000 -2.250000
v 0.750000 -2.500000 -0.000000
v 0.750000 -2.500000 -2.500000
v 0.750000 -1.500000 -0.000000
v 2.500000 -1.500000 -2.500000
v 2.500000 -0.750000 -0.000000
v 2.500000 -0.750000 -2.500000
v 1.500000 -0.750000 -0.000000
v 1.000000 -1.500000 -2.500000
v 0.750000 -1.000000 -0.000000
v 1.500000 -1.500000 -2.500000
v 1.000000 -1.000000 -2.500000
v 0.750000 -1.500000 -2.500000
v 1.500000 -0.750000 -2.500000
vn -1.0000 -0.0000 -0.0000
vn -0.7071 0.7071 -0.0000
vn -0.0000 1.0000 -0.0000
vn 1.0000 -0.0000 -0.0000
vn -0.0000 -0.0000 1.0000
vn -0.0000 -0.0000 -1.0000
vn -0.0000 -1.0000 -0.0000
vn 0.7071 -0.7071 -0.0000
vn 0.7071 0.7071 -0.0000
vn -0.7071 -0.7071 -0.0000
vt 0.500000 0.800000
vt 0.000000 0.700000
vt 0.500000 0.700000
vt 0.800000 0.000000
vt 1.000000 0.500000
vt 0.800000 0.500000
vt 0.650000 0.500000
vt 0.500000 0.000000
vt 0.650000 0.000000
vt 0.700000 0.000000
vt 0.000000 0.650000
vt 0.500000 0.650000
vt 0.500000 0.500000
vt 0.450000 0.650000
vt 0.800000 0.650000
vt 0.700000 0.700000
vt 0.800000 0.700000
vt 1.000000 0.650000
vt 0.700000 1.000000
vt 0.650000 0.800000
vt 0.650000 1.000000
vt 0.800000 0.800000
vt 0.700000 0.800000
vt 0.650000 0.700000
vt 0.700000 0.650000
vt 1.000000 0.800000
vt 1.000000 0.700000
vt 0.800000 1.000000
vt 0.500000 1.000000
vt 0.650000 0.050000
vt 0.050000 0.500000
vt 0.000000 0.500000
vt 0.700000 0.650000
vt 0.700000 1.000000
vt 0.700000 0.450000
vt 0.650000 0.450000
vt 0.700000 0.050000
vt 0.500000 0.450000
vt 0.700000 0.500000
vt 0.700000 0.500000
vt 0.000000 0.800000
vt 1.000000 0.000000
vt 0.450000 0.500000
vt 0.500000 0.050000
vt 0.050000 0.650000
s 0
f 3/1/1 8/2/1 7/3/1
f 2/4/2 3/5/2 14/6/2
f 35/7/3 30/8/3 36/9/3
f 14/6/3 6/10/3 2/4/3
f 7/3/1 40/11/1 39/12/1
f 9/13/4 32/14/4 25/12/4
f 42/15/5 27/16/5 15/17/5
f 1/5/5 42/15/5 39/18/5
f 5/19/5 37/20/5 35/21/5
f 5/19/5 16/22/5 13/23/5
f 44/24/5 27/16/5 25/25/5
f 15/17/5 3/26/5 7/27/5
f 14/28/5 3/26/5 16/22/5
f 26/17/6 40/18/6 8/27/6
f 17/1/6 36/21/6 30/29/6
f 28/24/6 17/1/6 19/3/6
f 47/20/6 46/16/6 43/23/6
f 2/28/6 45/22/6 38/26/6
f 19/8/7 34/30/7 28/9/7
f 38/26/6 26/17/6 8/27/6
f 29/11/4 23/31/4 20/32/4
f 13/23/5 44/24/5 37/20/5
f 28/24/6 29/33/6 46/16/6
f 45/22/6 6/34/6 43/23/6
f 12/1/5 44/24/5 10/3/5
f 47/20/6 6/34/6 36/21/6
f 44/7/8 32/35/8 31/36/8
f 29/10/8 34/30/8 33/37/8
f 44/7/7 22/38/7 10/13/7
f 48/15/6 41/5/6 40/18/6
f 35/21/5 12/1/5 4/29/5
f 5/39/3 36/9/3 6/10/3
f 46/16/6 48/15/6 26/17/6
f 39/18/5 15/17/5 7/27/5
f 39/12/1 41/32/1 1/13/1
f 9/39/5 42/15/5 11/6/5
f 27/16/5 16/22/5 15/17/5
f 48/15/6 20/40/6 18/6/6
f 45/22/6 46/16/6 26/17/6
f 55/2/4 51/1/4 54/3/4
f 51/5/9 50/4/9 59/6/9
f 30/8/3 75/7/3 76/9/3
f 53/10/3 59/6/3 50/4/3
f 80/11/4 54/3/4 79/12/4
f 72/14/1 56/13/1 66/12/1
f 68/16/5 82/15/5 60/17/5
f 82/15/5 49/5/5 79/18/5
f 77/20/5 52/19/5 75/21/5
f 61/22/5 52/19/5 58/23/5
f 84/24/5 66/25/5 68/16/5
f 51/26/5 60/17/5 54/27/5
f 59/28/5 61/22/5 51/26/5
f 80/18/6 67/17/6 55/27/6
f 76/21/6 17/1/6 30/29/6
f 17/1/6 69/24/6 19/3/6
f 87/20/6 86/16/6 69/24/6
f 50/28/6 78/26/6 85/22/6
f 74/30/7 19/8/7 69/9/7
f 67/17/6 78/26/6 55/27/6
f 65/31/1 70/11/1 63/32/1
f 84/24/5 58/23/5 77/20/5
f 69/24/6 86/16/6 70/33/6
f 53/34/6 85/22/6 83/23/6
f 84/24/5 12/1/5 10/3/5
f 53/34/6 87/20/6 76/21/6
f 72/35/10 84/7/10 71/36/10
f 74/30/10 70/10/10 73/37/10
f 10/13/7 71/36/7 84/7/7
f 81/5/6 88/15/6 80/18/6
f 12/1/5 75/21/5 4/29/5
f 76/9/3 52/39/3 53/10/3
f 88/15/6 86/16/6 67/17/6
f 60/17/5 79/18/5 54/27/5
f 81/32/4 79/12/4 49/13/4
f 82/15/5 56/39/5 57/6/5
f 61/22/5 68/16/5 60/17/5
f 63/40/6 88/15/6 62/6/6
f 86/16/6 85/22/6 67/17/6
f 95/2/1 90/1/1 94/3/1
f 90/5/10 89/4/10 99/6/10
f 111/8/7 116/7/7 117/9/7
f 93/10/7 99/6/7 89/4/7
f 121/11/1 94/3/1 120/12/1
f 113/14/4 9/13/4 106/12/4
f 108/16/5 122/15/5 100/17/5
f 122/15/5 1/5/5 120/18/5
f 118/20/5 92/19/5 116/21/5
f 101/22/5 92/19/5 98/23/5
f 124/24/5 106/25/5 108/16/5
f 90/26/5 100/17/5 94/27/5
f 99/28/5 101/22/5 90/26/5
f 121/18/6 107/17/6 95/27/6
f 117/21/6 102/1/6 111/29/6
f 102/1/6 109/24/6 103/3/6
f 127/20/6 126/16/6 109/24/6
f 89/28/6 119/26/6 125/22/6
f 115/30/3 103/8/3 109/9/3
f 107/17/6 119/26/6 95/27/6
f 23/31/4 110/11/4 20/32/4
f 124/24/5 98/23/5 118/20/5
f 109/24/6 126/16/6 110/33/6
f 93/34/6 125/22/6 123/23/6
f 124/24/5 97/1/5 96/3/5
f 93/34/6 127/20/6 117/21/6
f 113/35/9 124/7/9 112/36/9
f 115/30/9 110/10/9 114/37/9
f 96/13/3 112/36/3 124/7/3
f 41/5/6 128/15/6 121/18/6
f 97/1/5 116/21/5 91/29/5
f 117/9/7 92/39/7 93/10/7
f 128/15/6 126/16/6 107/17/6
f 100/17/5 120/18/5 94/27/5
f 41/32/1 120/12/1 1/13/1
f 122/15/5 9/39/5 11/6/5
f 101/22/5 108/16/5 100/17/5
f 20/40/6 128/15/6 18/6/6
f 126/16/6 125/22/6 107/17/6
f 130/1/4 134/2/4 133/3/4
f 129/4/8 130/5/8 136/6/8
f 148/7/7 111/8/7 149/9/7
f 136/6/7 132/10/7 129/4/7
f 133/3/4 153/11/4 152/12/4
f 56/13/1 145/14/1 139/12/1
f 154/15/5 141/16/5 137/17/5
f 49/5/5 154/15/5 152/18/5
f 131/19/5 150/20/5 148/21/5
f 131/19/5 138/22/5 135/23/5
f 156/24/5 141/16/5 139/25/5
f 137/17/5 130/26/5 133/27/5
f 136/28/5 130/26/5 138/22/5
f 140/17/6 153/18/6 134/27/6
f 102/1/6 149/21/6 111/29/6
f 142/24/6 102/1/6 103/3/6
f 159/20/6 158/16/6 155/23/6
f 129/28/6 157/22/6 151/26/6
f 103/8/3 147/30/3 142/9/3
f 151/26/6 140/17/6 134/27/6
f 143/11/1 65/31/1 63/32/1
f 135/23/5 156/24/5 150/20/5
f 142/24/6 143/33/6 158/16/6
f 157/22/6 132/34/6 155/23/6
f 97/1/5 156/24/5 96/3/5
f 159/20/6 132/34/6 149/21/6
f 156/7/2 145/35/2 144/36/2
f 143/10/2 147/30/2 146/37/2
f 156/7/3 104/38/3 96/13/3
f 160/15/6 81/5/6 153/18/6
f 148/21/5 97/1/5 91/29/5
f 131/39/7 149/9/7 132/10/7
f 158/16/6 160/15/6 140/17/6
f 152/18/5 137/17/5 133/27/5
f 152/12/4 81/32/4 49/13/4
f 56/39/5 154/15/5 57/6/5
f 141/16/5 138/22/5 137/17/5
f 160/15/6 63/40/6 62/6/6
f 157/22/6 158/16/6 140/17/6
f 3/1/1 38/41/1 8/2/1
f 2/4/2 38/42/2 3/5/2
f 35/7/3 4/13/3 30/8/3
f 14/6/3 5/39/3 6/10/3
f 7/3/1 8/2/1 40/11/1
f 9/13/4 21/43/4 32/14/4
f 42/15/5 25/25/5 27/16/5
f 1/5/5 11/6/5 42/15/5
f 5/19/5 13/23/5 37/20/5
f 5/19/5 14/28/5 16/22/5
f 15/17/5 16/22/5 3/26/5
f 26/17/6 48/15/6 40/18/6
f 17/1/6 47/20/6 36/21/6
f 28/24/6 47/20/6 17/1/6
f 47/20/6 28/24/6 46/16/6
f 19/8/7 24/44/7 34/30/7
f 38/26/6 45/22/6 26/17/6
f 29/11/4 33/45/4 23/31/4
f 13/23/5 27/16/5 44/24/5
f 45/22/6 2/28/6 6/34/6
f 12/1/5 37/20/5 44/24/5
f 47/20/6 43/23/6 6/34/6
f 44/7/8 25/39/8 32/35/8
f 29/10/8 28/9/8 34/30/8
f 44/7/7 31/36/7 22/38/7
f 48/15/6 18/6/6 41/5/6
f 35/21/5 37/20/5 12/1/5
f 5/39/3 35/7/3 36/9/3
f 46/16/6 29/33/6 48/15/6
f 39/18/5 42/15/5 15/17/5
f 39/12/1 40/11/1 41/32/1
f 9/39/5 25/25/5 42/15/5
f 27/16/5 13/23/5 16/22/5
f 48/15/6 29/33/6 20/40/6
f 45/22/6 43/23/6 46/16/6
f 55/2/4 78/41/4 51/1/4
f 51/5/9 78/42/9 50/4/9
f 30/8/3 4/13/3 75/7/3
f 53/10/3 52/39/3 59/6/3
f 80/11/4 55/2/4 54/3/4
f 72/14/1 64/43/1 56/13/1
f 68/16/5 66/25/5 82/15/5
f 82/15/5 57/6/5 49/5/5
f 77/20/5 58/23/5 52/19/5
f 61/22/5 59/28/5 52/19/5
f 51/26/5 61/22/5 60/17/5
f 80/18/6 88/15/6 67/17/6
f 76/21/6 87/20/6 17/1/6
f 17/1/6 87/20/6 69/24/6
f 87/20/6 83/23/6 86/16/6
f 74/30/7 24/44/7 19/8/7
f 67/17/6 85/22/6 78/26/6
f 65/31/1 73/45/1 70/11/1
f 84/24/5 68/16/5 58/23/5
f 53/34/6 50/28/6 85/22/6
f 84/24/5 77/20/5 12/1/5
f 53/34/6 83/23/6 87/20/6
f 72/35/10 66/39/10 84/7/10
f 74/30/10 69/9/10 70/10/10
f 10/13/7 22/38/7 71/36/7
f 81/5/6 62/6/6 88/15/6
f 12/1/5 77/20/5 75/21/5
f 76/9/3 75/7/3 52/39/3
f 88/15/6 70/33/6 86/16/6
f 60/17/5 82/15/5 79/18/5
f 81/32/4 80/11/4 79/12/4
f 82/15/5 66/25/5 56/39/5
f 61/22/5 58/23/5 68/16/5
f 63/40/6 70/33/6 88/15/6
f 86/16/6 83/23/6 85/22/6
f 95/2/1 119/41/1 90/1/1
f 90/5/10 119/42/10 89/4/10
f 111/8/7 91/13/7 116/7/7
f 93/10/7 92/39/7 99/6/7
f 121/11/1 95/2/1 94/3/1
f 113/14/4 21/43/4 9/13/4
f 108/16/5 106/25/5 122/15/5
f 122/15/5 11/6/5 1/5/5
f 118/20/5 98/23/5 92/19/5
f 101/22/5 99/28/5 92/19/5
f 90/26/5 101/22/5 100/17/5
f 121/18/6 128/15/6 107/17/6
f 117/21/6 127/20/6 102/1/6
f 102/1/6 127/20/6 109/24/6
f 127/20/6 123/23/6 126/16/6
f 115/30/3 105/44/3 103/8/3
f 107/17/6 125/22/6 119/26/6
f 23/31/4 114/45/4 110/11/4
f 124/24/5 108/16/5 98/23/5
f 93/34/6 89/28/6 125/22/6
f 124/24/5 118/20/5 97/1/5
f 93/34/6 123/23/6 127/20/6
f 113/35/9 106/39/9 124/7/9
f 115/30/9 109/9/9 110/10/9
f 96/13/3 104/38/3 112/36/3
f 41/5/6 18/6/6 128/15/6
f 97/1/5 118/20/5 116/21/5
f 117/9/7 116/7/7 92/39/7
f 128/15/6 110/33/6 126/16/6
f 100/17/5 122/15/5 120/18/5
f 41/32/1 121/11/1 120/12/1
f 122/15/5 106/25/5 9/39/5
f 101/22/5 98/23/5 108/16/5
f 20/40/6 110/33/6 128/15/6
f 126/16/6 123/23/6 125/22/6
f 130/1/4 151/41/4 134/2/4
f 129/4/8 151/42/8 130/5/8
f 148/7/7 91/13/7 111/8/7
f 136/6/7 131/39/7 132/10/7
f 133/3/4 134/2/4 153/11/4
f 56/13/1 64/43/1 145/14/1
f 154/15/5 139/25/5 141/16/5
f 49/5/5 57/6/5 154/15/5
f 131/19/5 135/23/5 150/20/5
f 131/19/5 136/28/5 138/22/5
f 137/17/5 138/22/5 130/26/5
f 140/17/6 160/15/6 153/18/6
f 102/1/6 159/20/6 149/21/6
f 142/24/6 159/20/6 102/1/6
f 159/20/6 142/24/6 158/16/6
f 103/8/3 105/44/3 147/30/3
f 151/26/6 157/22/6 140/17/6
f 143/11/1 146/45/1 65/31/1
f 135/23/5 141/16/5 156/24/5
f 157/22/6 129/28/6 132/34/6
f 97/1/5 150/20/5 156/24/5
f 159/20/6 155/23/6 132/34/6
f 156/7/2 139/39/2 145/35/2
f 143/10/2 142/9/2 147/30/2
f 156/7/3 144/36/3 104/38/3
f 160/15/6 62/6/6 81/5/6
f 148/21/5 150/20/5 97/1/5
f 131/39/7 148/7/7 149/9/7
f 158/16/6 143/33/6 160/15/6
f 152/18/5 154/15/5 137/17/5
f 152/12/4 153/11/4 81/32/4
f 56/39/5 139/25/5 154/15/5
f 141/16/5 135/23/5 138/22/5
f 160/15/6 143/33/6 63/40/6
f 157/22/6 155/23/6 158/16/6
