# Blender 4.3.1
# www.blender.org
o L-Hull
v 2.500000 -2.500000 -2.500000
v 2.500000 2.500000 -2.500000
v 2.500000 -2.500000 2.500000
v 2.500000 2.500000 2.500000
v -2.500000 -2.500000 -2.500000
v -2.500000 2.500000 -2.500000
v -2.500000 -2.500000 2.500000
v -2.500000 2.500000 2.500000
v 2.500000 -1.000000 -1.000000
v 2.500000 1.000000 -1.000000
v 2.500000 1.000000 1.000000
v 2.500000 -1.000000 1.000000
v 1.000000 -1.000000 2.500000
v -1.000000 1.000000 2.500000
v -1.000000 -1.000000 2.500000
v -1.000000 2.000000 1.000000
v -2.000000 2.000000 1.000000
v 1.000000 2.000000 1.000000
v 1.000000 2.000000 -1.000000
v 1.000000 1.000000 2.500000
v 2.000000 -1.000000 1.000000
v 2.000000 -1.000000 -1.000000
v 2.000000 1.000000 -1.000000
v -1.000000 -1.000000 2.000000
v 1.000000 -1.000000 2.000000
v -1.000000 1.000000 2.000000
v 2.000000 1.000000 1.000000
v 1.000000 1.000000 2.000000
v 1.000000 -1.000000 -2.000000
v 1.000000 1.000000 -2.000000
v 2.000000 -1.000000 -2.000000
v -1.000000 -1.000000 -2.000000
v -1.000000 1.000000 -2.000000
v 2.000000 1.000000 -2.000000
v -2.000000 -1.000000 -1.000000
v -2.000000 -1.000000 -2.000000
v -2.000000 1.000000 -1.000000
v -2.000000 -1.000000 1.000000
v -2.000000 1.000000 1.000000
v -2.000000 -1.000000 2.000000
v -2.000000 1.000000 2.000000
v -2.000000 1.000000 -2.000000
v -1.000000 -1.100000 -1.000000
v -1.000000 -1.100000 -2.000000
v 1.000000 -1.100000 1.000000
v 1.000000 -1.100000 -1.000000
v 2.000000 -1.100000 1.000000
v 1.000000 -1.100000 2.000000
v 2.000000 -1.100000 -1.000000
v -1.000000 -1.100000 1.000000
v -1.000000 -1.100000 2.000000
v 2.000000 -1.100000 -2.000000
v 1.000000 -1.100000 -2.000000
v -2.000000 -1.100000 -1.000000
v -2.000000 -1.100000 -2.000000
v -2.000000 -1.100000 1.000000
v -2.000000 -1.100000 2.000000
v -1.000000 2.000000 -1.000000
v -1.000000 2.000000 2.000000
v -2.000000 2.000000 2.000000
v 1.000000 2.000000 2.000000
v 2.000000 2.000000 1.000000
v 2.000000 2.000000 -1.000000
v -1.000000 2.000000 -2.000000
v 1.000000 2.000000 -2.000000
v 2.000000 2.000000 -2.000000
v -2.000000 2.000000 -1.000000
v -2.000000 2.000000 -2.000000
vn -0.7071 -0.0000 -0.7071
vn -1.0000 -0.0000 -0.0000
vn -0.0000 -0.0000 -1.0000
vn -0.0000 -1.0000 -0.0000
vn -0.0000 1.0000 -0.0000
vn 1.0000 -0.0000 -0.0000
vn -0.0000 -0.0000 1.0000
vt 0.734014 0.734014
vt 0.642213 0.688113
vt 0.734014 0.688113
vt 0.027461 0.256964
vt 0.256964 0.027461
vt 0.256964 0.256964
vt 0.027461 0.541390
vt 0.256964 0.311887
vt 0.256964 0.541390
vt 0.541390 0.256964
vt 0.311887 0.027461
vt 0.541390 0.027461
vt 0.541390 0.541390
vt 0.311887 0.311887
vt 0.541390 0.311887
vt 0.027461 0.825815
vt 0.188113 0.756964
vt 0.256964 0.825815
vt 0.027461 0.596312
vt 0.096312 0.756964
vt 0.256964 0.596312
vt 0.096312 0.665163
vt 0.188113 0.665163
vt 0.596312 0.256964
vt 0.756964 0.188113
vt 0.825815 0.256964
vt 0.596312 0.027461
vt 0.665163 0.188113
vt 0.825815 0.027461
vt 0.665163 0.096312
vt 0.756964 0.096312
vt 0.596312 0.596312
vt 0.642213 0.596312
vt 0.931228 0.688113
vt 0.935818 0.734014
vt 0.931228 0.734014
vt 0.642213 0.857787
vt 0.734014 0.811887
vt 0.734014 0.857787
vt 0.734014 0.550411
vt 0.734014 0.596312
vt 0.734014 0.949589
vt 0.642213 0.954179
vt 0.642213 0.949589
vt 0.834837 0.311887
vt 0.857787 0.403688
vt 0.834837 0.403688
vt 0.931228 0.596312
vt 0.935818 0.688113
vt 0.880738 0.027461
vt 0.903688 0.119262
vt 0.880738 0.119262
vt 0.642213 0.756964
vt 0.642213 0.734014
vt 0.311887 0.834837
vt 0.334837 0.926638
vt 0.311887 0.926638
vt 0.389759 0.834837
vt 0.412709 0.926638
vt 0.389759 0.926638
vt 0.490582 0.926638
vt 0.467632 0.834837
vt 0.490582 0.834837
vt 0.912709 0.311887
vt 0.935660 0.403688
vt 0.912709 0.403688
vt 0.050411 0.972539
vt 0.027461 0.880738
vt 0.050411 0.880738
vt 0.839427 0.734014
vt 0.793526 0.688113
vt 0.839427 0.688113
vt 0.931228 0.834837
vt 0.935818 0.926638
vt 0.931228 0.926638
vt 0.839427 0.834837
vt 0.793526 0.788936
vt 0.839427 0.788936
vt 0.596312 0.954179
vt 0.596312 0.949589
vt 0.793526 0.596312
vt 0.839427 0.596312
vt 0.931228 0.788936
vt 0.935818 0.834837
vt 0.596312 0.857787
vt 0.642213 0.811887
vt 0.793526 0.550411
vt 0.839427 0.550411
vt 0.738604 0.734014
vt 0.839427 0.926638
vt 0.839427 0.972539
vt 0.596312 0.688113
vt 0.738604 0.596312
vt 0.931228 0.550411
vt 0.935818 0.596312
vt 0.357787 0.779915
vt 0.449589 0.734014
vt 0.449589 0.779915
vt 0.449589 0.642213
vt 0.495489 0.596312
vt 0.495489 0.642213
vt 0.357787 0.734014
vt 0.495489 0.734014
vt 0.311887 0.734014
vt 0.311887 0.642213
vt 0.357787 0.642213
vt 0.357787 0.596312
vt 0.449589 0.596312
vt 0.935818 0.972539
vt 0.931228 0.972539
vt 0.738604 0.688113
vt 0.734014 0.357787
vt 0.642213 0.449589
vt 0.642213 0.357787
vt 0.734014 0.311887
vt 0.642213 0.311887
vt 0.734014 0.449589
vt 0.642213 0.495489
vt 0.779915 0.449589
vt 0.734014 0.495489
vt 0.779915 0.357787
vt 0.596312 0.357787
vt 0.596312 0.311887
vt 0.596312 0.495489
vt 0.596312 0.449589
vt 0.793526 0.926638
vt 0.793526 0.834837
vt 0.596312 0.550411
vt 0.642213 0.550411
vt 0.027461 0.027461
vt 0.027461 0.311887
vt 0.311887 0.256964
vt 0.311887 0.541390
vt 0.734014 0.954179
vt 0.857787 0.311887
vt 0.903688 0.027461
vt 0.734014 0.756964
vt 0.334837 0.834837
vt 0.412709 0.834837
vt 0.467632 0.926638
vt 0.935660 0.311887
vt 0.027461 0.972539
vt 0.793526 0.734014
vt 0.935818 0.788936
vt 0.596312 0.811887
vt 0.596312 0.734014
vt 0.738604 0.550411
vt 0.935818 0.550411
vt 0.311887 0.779915
vt 0.311887 0.596312
vt 0.779915 0.495489
vt 0.793526 0.972539
s 0
f 25/1/1 27/2/1 21/3/1
f 8/4/2 5/5/2 7/6/2
f 6/7/3 1/8/3 5/9/3
f 7/10/4 1/11/4 3/12/4
f 4/13/5 6/14/5 8/15/5
f 2/16/6 9/17/6 1/18/6
f 4/19/6 10/20/6 2/16/6
f 3/21/6 11/22/6 4/19/6
f 1/18/6 12/23/6 3/21/6
f 4/24/7 13/25/7 3/26/7
f 8/27/7 20/28/7 4/24/7
f 7/29/7 14/30/7 8/27/7
f 3/26/7 15/31/7 7/29/7
f 27/2/2 63/32/2 23/33/2
f 29/34/7 52/35/7 31/36/7
f 26/37/3 61/38/3 28/39/3
f 23/33/2 31/40/2 22/41/2
f 25/42/3 51/43/3 24/44/3
f 24/45/5 13/46/5 25/47/5
f 32/48/7 53/49/7 29/34/7
f 26/50/6 15/51/6 24/52/6
f 25/1/2 20/53/2 28/54/2
f 28/55/4 14/56/4 26/57/4
f 10/58/7 22/59/7 9/60/7
f 11/61/4 23/62/4 10/63/4
f 9/64/5 21/65/5 12/66/5
f 12/67/3 27/68/3 11/69/3
f 34/70/7 65/71/7 30/72/7
f 38/73/6 54/74/6 35/75/6
f 39/76/6 60/77/6 41/78/6
f 24/44/3 57/79/3 40/80/3
f 30/72/7 64/81/7 33/82/7
f 34/70/7 29/34/7 31/36/7
f 30/72/7 32/48/7 29/34/7
f 40/83/6 56/84/6 38/73/6
f 41/85/3 59/86/3 26/37/3
f 33/82/7 68/87/7 42/88/7
f 21/3/1 48/89/1 25/1/1
f 37/90/6 38/73/6 35/75/6
f 35/75/6 42/91/6 37/90/6
f 39/76/6 40/83/6 38/73/6
f 28/54/1 62/92/1 27/2/1
f 31/40/2 49/93/2 22/41/2
f 36/94/7 44/95/7 32/48/7
f 24/44/3 41/85/3 26/37/3
f 33/82/7 36/94/7 32/48/7
f 49/96/5 45/97/5 47/98/5
f 50/99/5 57/100/5 51/101/5
f 46/102/5 50/99/5 45/97/5
f 48/103/5 47/98/5 45/97/5
f 50/99/5 48/103/5 45/97/5
f 49/96/5 53/104/5 46/102/5
f 46/102/5 44/105/5 43/106/5
f 44/105/5 54/107/5 43/106/5
f 43/106/5 56/108/5 50/99/5
f 35/75/6 55/109/6 36/110/6
f 22/41/2 47/111/2 21/3/2
f 18/112/4 58/113/4 19/114/4
f 62/115/4 19/114/4 63/116/4
f 16/117/4 67/118/4 58/113/4
f 18/112/4 59/119/4 16/117/4
f 59/119/4 17/120/4 16/117/4
f 18/112/4 62/115/4 61/121/4
f 58/113/4 65/122/4 19/114/4
f 19/114/4 66/123/4 63/116/4
f 58/113/4 68/124/4 64/125/4
f 42/91/6 67/126/6 37/90/6
f 37/90/6 17/127/6 39/76/6
f 23/33/2 66/128/2 34/129/2
f 25/1/1 28/54/1 27/2/1
f 8/4/2 6/130/2 5/5/2
f 6/7/3 2/131/3 1/8/3
f 7/10/4 5/132/4 1/11/4
f 4/13/5 2/133/5 6/14/5
f 2/16/6 10/20/6 9/17/6
f 4/19/6 11/22/6 10/20/6
f 3/21/6 12/23/6 11/22/6
f 1/18/6 9/17/6 12/23/6
f 4/24/7 20/28/7 13/25/7
f 8/27/7 14/30/7 20/28/7
f 7/29/7 15/31/7 14/30/7
f 3/26/7 13/25/7 15/31/7
f 27/2/2 62/92/2 63/32/2
f 29/34/7 53/49/7 52/35/7
f 26/37/3 59/86/3 61/38/3
f 23/33/2 34/129/2 31/40/2
f 25/42/3 48/134/3 51/43/3
f 24/45/5 15/135/5 13/46/5
f 32/48/7 44/95/7 53/49/7
f 26/50/6 14/136/6 15/51/6
f 25/1/2 13/137/2 20/53/2
f 28/55/4 20/138/4 14/56/4
f 10/58/7 23/139/7 22/59/7
f 11/61/4 27/140/4 23/62/4
f 9/64/5 22/141/5 21/65/5
f 12/67/3 21/142/3 27/68/3
f 34/70/7 66/143/7 65/71/7
f 38/73/6 56/84/6 54/74/6
f 39/76/6 17/127/6 60/77/6
f 24/44/3 51/43/3 57/79/3
f 30/72/7 65/71/7 64/81/7
f 34/70/7 30/72/7 29/34/7
f 30/72/7 33/82/7 32/48/7
f 40/83/6 57/144/6 56/84/6
f 41/85/3 60/145/3 59/86/3
f 33/82/7 64/81/7 68/87/7
f 21/3/1 47/111/1 48/89/1
f 37/90/6 39/76/6 38/73/6
f 35/75/6 36/110/6 42/91/6
f 39/76/6 41/78/6 40/83/6
f 28/54/1 61/146/1 62/92/1
f 31/40/2 52/147/2 49/93/2
f 36/94/7 55/148/7 44/95/7
f 24/44/3 40/80/3 41/85/3
f 33/82/7 42/88/7 36/94/7
f 49/96/5 46/102/5 45/97/5
f 50/99/5 56/108/5 57/100/5
f 46/102/5 43/106/5 50/99/5
f 50/99/5 51/101/5 48/103/5
f 49/96/5 52/149/5 53/104/5
f 46/102/5 53/104/5 44/105/5
f 44/105/5 55/150/5 54/107/5
f 43/106/5 54/107/5 56/108/5
f 35/75/6 54/74/6 55/109/6
f 22/41/2 49/93/2 47/111/2
f 18/112/4 16/117/4 58/113/4
f 62/115/4 18/112/4 19/114/4
f 16/117/4 17/120/4 67/118/4
f 18/112/4 61/121/4 59/119/4
f 59/119/4 60/151/4 17/120/4
f 58/113/4 64/125/4 65/122/4
f 19/114/4 65/122/4 66/123/4
f 58/113/4 67/118/4 68/124/4
f 42/91/6 68/152/6 67/126/6
f 37/90/6 67/126/6 17/127/6
f 23/33/2 63/32/2 66/128/2
